<svg width="40" height="43" viewBox="0 0 40 43" fill="none" xmlns="http://www.w3.org/2000/svg">
	<path d="M29.1178 22.0208C29.4107 21.7279 29.4107 21.253 29.1178 20.9601L24.3448 16.1872C24.0519 15.8943 23.577 15.8943 23.2841 16.1872C22.9912 16.4801 22.9912 16.9549 23.2841 17.2478L27.5268 21.4905L23.2841 25.7331C22.9912 26.026 22.9912 26.5009 23.2841 26.7938C23.577 27.0867 24.0519 27.0867 24.3448 26.7938L29.1178 22.0208ZM7.76233 22.2405L28.5874 22.2405L28.5874 20.7405L7.76233 20.7405L7.76233 22.2405Z" fill="black" />
	<path d="M0.820557 11.5237C8.91921 -5.81426 38.9999 -1.08646 38.9999 20.9808C38.9999 43.0481 12.7757 48.5635 0.820557 33.5897" stroke="black" />
</svg>
