<svg width="14" height="14" viewBox="0 0 14 14" fill="black" xmlns="http://www.w3.org/2000/svg">
	<path d="M12.4106 0.721924H2.02854C1.15232 0.721924 0.439453 1.40382 0.439453 2.24197V12.1729C0.439453 13.0111 1.15232 13.693 2.02854 13.693H12.4106C13.2868 13.693 13.9996 13.0111 13.9996 12.1729V2.24197C13.9996 1.40382 13.2868 0.721924 12.4106 0.721924ZM12.9402 12.1729C12.9402 12.4523 12.7026 12.6796 12.4106 12.6796H9.39129V8.55015H11.0278L11.2982 6.97944H9.39129V5.89007C9.39129 5.46003 9.73625 5.13005 10.1858 5.13005H11.2717V3.55934H10.1858C8.83715 3.55934 7.74982 4.60437 7.74982 5.89448V6.97944H6.16015V8.55015H7.74982V12.6796H2.02854C1.73646 12.6796 1.49884 12.4523 1.49884 12.1729V2.24197C1.49884 1.96258 1.73646 1.73529 2.02854 1.73529H12.4106C12.7026 1.73529 12.9402 1.96258 12.9402 2.24197V12.1729Z" fill="black" />
</svg>
