<svg viewBox="0 0 14 14" fill="white" xmlns="http://www.w3.org/2000/svg">
	<path d="M12.4105 0.123047H2.02853C1.15232 0.123047 0.439453 0.835909 0.439453 1.71213V12.0941C0.439453 12.9703 1.15232 13.6832 2.02853 13.6832H12.4105C13.2868 13.6832 13.9996 12.9703 13.9996 12.0941V1.71213C13.9996 0.835909 13.2868 0.123047 12.4105 0.123047ZM12.9402 12.0941C12.9402 12.3862 12.7026 12.6238 12.4105 12.6238H9.39128V8.30682H11.0278L11.2982 6.66477H9.39128V5.52592C9.39128 5.07635 9.73624 4.73138 10.1858 4.73138H11.2717V3.08933H10.1858C8.83714 3.08933 7.74981 4.18183 7.74981 5.53053V6.66477H6.16015V8.30682H7.74981V12.6238H2.02853C1.73646 12.6238 1.49884 12.3862 1.49884 12.0941V1.71213C1.49884 1.42006 1.73646 1.18243 2.02853 1.18243H12.4105C12.7026 1.18243 12.9402 1.42006 12.9402 1.71213V12.0941Z" />
</svg>
