<svg width="13" height="18" viewBox="0 0 13 18" fill="none" xmlns="http://www.w3.org/2000/svg">
	<path d="M6.48181 0.699097C2.90739 0.699097 0 3.54781 0 7.04924C0 11.4367 5.81242 17.195 6.0599 17.4374C6.17068 17.5468 6.32271 17.6088 6.48181 17.6088C6.64091 17.6088 6.79294 17.5468 6.90372 17.4385C7.15121 17.195 12.9636 11.4367 12.9636 7.04924C12.9636 3.54781 10.0562 0.699097 6.48181 0.699097ZM6.48181 16.2177C5.15717 14.8187 1.17851 10.3421 1.17851 7.04924C1.17851 4.17009 3.55793 1.82641 6.48181 1.82641C9.4057 1.82641 11.7851 4.17009 11.7851 7.04924C11.7851 10.3421 7.80646 14.8187 6.48181 16.2177Z" fill="black" />
	<path d="M6.48141 4.07837C4.85744 4.07837 3.53516 5.40031 3.53516 7.02388C3.53516 8.64744 4.85744 9.96938 6.48141 9.96938C8.10539 9.96938 9.42767 8.64744 9.42767 7.02388C9.42767 5.40031 8.10539 4.07837 6.48141 4.07837ZM6.48141 8.79118C5.50679 8.79118 4.71366 7.99825 4.71366 7.02388C4.71366 6.0495 5.50679 5.25657 6.48141 5.25657C7.45604 5.25657 8.24917 6.0495 8.24917 7.02388C8.24917 7.99825 7.45604 8.79118 6.48141 8.79118Z" fill="black" />
</svg>
