<svg viewBox="0 0 13 18" fill="white" xmlns="http://www.w3.org/2000/svg">
	<path d="M6.48182 0C2.90739 0 0 2.9781 0 6.63856C0 11.2253 5.81242 17.2452 6.05991 17.4986C6.17069 17.6129 6.32272 17.6777 6.48182 17.6777C6.64092 17.6777 6.79295 17.6129 6.90373 17.4997C7.15121 17.2452 12.9636 11.2253 12.9636 6.63856C12.9636 2.9781 10.0562 0 6.48182 0ZM6.48182 16.2234C5.15717 14.7609 1.17851 10.081 1.17851 6.63856C1.17851 3.62864 3.55793 1.17851 6.48182 1.17851C9.40571 1.17851 11.7851 3.62864 11.7851 6.63856C11.7851 10.081 7.80647 14.7609 6.48182 16.2234Z" />
	<path d="M6.48144 3.53516C4.85745 3.53516 3.53516 4.91714 3.53516 6.61444C3.53516 8.31174 4.85745 9.69372 6.48144 9.69372C8.10543 9.69372 9.42772 8.31174 9.42772 6.61444C9.42772 4.91714 8.10543 3.53516 6.48144 3.53516ZM6.48144 8.46201C5.50681 8.46201 4.71367 7.63307 4.71367 6.61444C4.71367 5.59581 5.50681 4.76687 6.48144 4.76687C7.45607 4.76687 8.24921 5.59581 8.24921 6.61444C8.24921 7.63307 7.45607 8.46201 6.48144 8.46201Z" />
</svg>
