<svg viewBox="0 0 19 19" fill="white" xmlns="http://www.w3.org/2000/svg">
	<path d="M18.2442 14.5364L13.8951 10.949C13.7916 10.8651 13.6648 10.8198 13.5361 10.8198C13.3563 10.8198 13.1851 10.9079 13.0782 11.0555C12.5832 11.7379 11.9764 12.3283 11.2743 12.8099C11.1437 12.8996 11.0571 13.0367 11.0369 13.1861C11.0167 13.3357 11.0616 13.4836 11.1636 13.6024L14.8558 17.8345C15.106 18.1264 15.4692 18.2948 15.8509 18.2948C16.194 18.2948 16.5207 18.1609 16.771 17.9175L18.3317 16.4001C18.5977 16.1415 18.735 15.8041 18.7185 15.4497C18.7018 15.0951 18.5334 14.7708 18.2442 14.5364Z" />
	<path d="M6.91034 13.4369C8.756 13.4369 10.4914 12.7381 11.7966 11.4691C13.1019 10.2 13.8207 8.51296 13.8207 6.71848C13.8208 3.01395 10.7208 0 6.91034 0C3.09987 0 0 3.01395 0 6.71848C0 10.423 3.09996 13.4369 6.91034 13.4369ZM2.23941 6.71848C2.23941 4.21444 4.33476 2.1773 6.91034 2.1773C9.48594 2.1773 11.5812 4.21444 11.5812 6.71848C11.5812 7.92948 11.0949 9.06932 10.2116 9.92796C9.32835 10.7866 8.15594 11.2596 6.91034 11.2596C4.33476 11.2597 2.23941 9.22248 2.23941 6.71848Z" />
</svg>
