<svg viewBox="0 0 51 54" fill="none" xmlns="http://www.w3.org/2000/svg">
	<path d="M37.5303 27.5303C37.8232 27.2374 37.8232 26.7626 37.5303 26.4697L32.7574 21.6967C32.4645 21.4038 31.9896 21.4038 31.6967 21.6967C31.4038 21.9896 31.4038 22.4645 31.6967 22.7574L35.9393 27L31.6967 31.2426C31.4038 31.5355 31.4038 32.0104 31.6967 32.3033C31.9896 32.5962 32.4645 32.5962 32.7574 32.3033L37.5303 27.5303ZM10 27.75L37 27.75L37 26.25L10 26.25L10 27.75Z" fill="#FFC729" />
	<path d="M1 14.3533C11.5 -7.64648 50.5 -1.64747 50.5 26.3533C50.5 54.354 16.5 61.3524 1 42.3524" stroke="#FFC729" />
</svg>