<svg display="none" xmlns="http://www.w3.org/2000/svg">
	<symbol id="button" viewBox="0 0 36 38">
		<g>
			<path d="M23.5303 20.5303C23.8232 20.2374 23.8232 19.7626 23.5303 19.4697L18.7574 14.6967C18.4645 14.4038 17.9896 14.4038 17.6967 14.6967C17.4038 14.9896 17.4038 15.4645 17.6967 15.7574L21.9393 20L17.6967 24.2426C17.4038 24.5355 17.4038 25.0104 17.6967 25.3033C17.9896 25.5962 18.4645 25.5962 18.7574 25.3033L23.5303 20.5303ZM4 20.75L23 20.75L23 19.25L4 19.25L4 20.75Z" fill="#FFC729" />
			<path d="M1 10.2403C8.21212 -4.98319 35 -0.831951 35 18.5442C35 37.9203 11.6465 42.7632 1 29.6154" stroke="#FFC729" />
		</g>
	</symbol>
</svg>
