<svg display="none" xmlns="http://www.w3.org/2000/svg">
	<symbol id="location" viewBox="0 0 13 18">
		<g>
			<path d="M6.48182 0C2.90739 0 0 2.9781 0 6.63856C0 11.2253 5.81242 17.2452 6.05991 17.4986C6.17069 17.6129 6.32272 17.6777 6.48182 17.6777C6.64092 17.6777 6.79295 17.6129 6.90373 17.4997C7.15121 17.2452 12.9636 11.2253 12.9636 6.63856C12.9636 2.9781 10.0562 0 6.48182 0ZM6.48182 16.2234C5.15717 14.7609 1.17851 10.081 1.17851 6.63856C1.17851 3.62864 3.55793 1.17851 6.48182 1.17851C9.40571 1.17851 11.7851 3.62864 11.7851 6.63856C11.7851 10.081 7.80647 14.7609 6.48182 16.2234Z" />
			<path d="M6.48144 3.53516C4.85745 3.53516 3.53516 4.91714 3.53516 6.61444C3.53516 8.31174 4.85745 9.69372 6.48144 9.69372C8.10543 9.69372 9.42772 8.31174 9.42772 6.61444C9.42772 4.91714 8.10543 3.53516 6.48144 3.53516ZM6.48144 8.46201C5.50681 8.46201 4.71367 7.63307 4.71367 6.61444C4.71367 5.59581 5.50681 4.76687 6.48144 4.76687C7.45607 4.76687 8.24921 5.59581 8.24921 6.61444C8.24921 7.63307 7.45607 8.46201 6.48144 8.46201Z" />
		</g>
	</symbol>
	<symbol id="mail" viewBox="0 0 13 11">
		<g>
			<path d="M0.356321 0.992188H11.9806C12.0516 0.992188 12.1094 1.05952 12.1094 1.14257V10.4731C12.1094 10.5562 12.0516 10.6234 11.9806 10.6234H0.356321C0.285442 10.6234 0.227166 10.5562 0.227166 10.4731V1.14257C0.227166 1.05952 0.285412 0.992188 0.356321 0.992188ZM2.32224 2.19615L6.16827 5.48266L10.0144 2.19615H2.32224ZM1.26043 9.41942H11.076V2.78215L6.24469 6.91051C6.19898 6.94932 6.13737 6.94932 6.09161 6.91051L1.26028 2.78215V9.41942H1.26043Z" />
		</g>
	</symbol>
	<symbol id="facebook" viewBox="0 0 14 14">
		<g>
			<path d="M12.4105 0.123047H2.02853C1.15232 0.123047 0.439453 0.835909 0.439453 1.71213V12.0941C0.439453 12.9703 1.15232 13.6832 2.02853 13.6832H12.4105C13.2868 13.6832 13.9996 12.9703 13.9996 12.0941V1.71213C13.9996 0.835909 13.2868 0.123047 12.4105 0.123047ZM12.9402 12.0941C12.9402 12.3862 12.7026 12.6238 12.4105 12.6238H9.39128V8.30682H11.0278L11.2982 6.66477H9.39128V5.52592C9.39128 5.07635 9.73624 4.73138 10.1858 4.73138H11.2717V3.08933H10.1858C8.83714 3.08933 7.74981 4.18183 7.74981 5.53053V6.66477H6.16015V8.30682H7.74981V12.6238H2.02853C1.73646 12.6238 1.49884 12.3862 1.49884 12.0941V1.71213C1.49884 1.42006 1.73646 1.18243 2.02853 1.18243H12.4105C12.7026 1.18243 12.9402 1.42006 12.9402 1.71213V12.0941Z" />
		</g>
	</symbol>
	<symbol id="details" viewBox="0 0 51 54">
		<g>
			<path d="M37.5303 27.5303C37.8232 27.2374 37.8232 26.7626 37.5303 26.4697L32.7574 21.6967C32.4645 21.4038 31.9896 21.4038 31.6967 21.6967C31.4038 21.9896 31.4038 22.4645 31.6967 22.7574L35.9393 27L31.6967 31.2426C31.4038 31.5355 31.4038 32.0104 31.6967 32.3033C31.9896 32.5962 32.4645 32.5962 32.7574 32.3033L37.5303 27.5303ZM10 27.75L37 27.75L37 26.25L10 26.25L10 27.75Z" fill="#FFC729" />
			<path d="M1 14.3533C11.5 -7.64648 50.5 -1.64747 50.5 26.3533C50.5 54.354 16.5 61.3524 1 42.3524" stroke="#FFC729" />
		</g>
	</symbol>
	<symbol id="loup" viewBox="0 0 19 19">
		<g>
			<path d="M18.2442 14.5364L13.8951 10.949C13.7916 10.8651 13.6648 10.8198 13.5361 10.8198C13.3563 10.8198 13.1851 10.9079 13.0782 11.0555C12.5832 11.7379 11.9764 12.3283 11.2743 12.8099C11.1437 12.8996 11.0571 13.0367 11.0369 13.1861C11.0167 13.3357 11.0616 13.4836 11.1636 13.6024L14.8558 17.8345C15.106 18.1264 15.4692 18.2948 15.8509 18.2948C16.194 18.2948 16.5207 18.1609 16.771 17.9175L18.3317 16.4001C18.5977 16.1415 18.735 15.8041 18.7185 15.4497C18.7018 15.0951 18.5334 14.7708 18.2442 14.5364Z" />
			<path d="M6.91034 13.4369C8.756 13.4369 10.4914 12.7381 11.7966 11.4691C13.1019 10.2 13.8207 8.51296 13.8207 6.71848C13.8208 3.01395 10.7208 0 6.91034 0C3.09987 0 0 3.01395 0 6.71848C0 10.423 3.09996 13.4369 6.91034 13.4369ZM2.23941 6.71848C2.23941 4.21444 4.33476 2.1773 6.91034 2.1773C9.48594 2.1773 11.5812 4.21444 11.5812 6.71848C11.5812 7.92948 11.0949 9.06932 10.2116 9.92796C9.32835 10.7866 8.15594 11.2596 6.91034 11.2596C4.33476 11.2597 2.23941 9.22248 2.23941 6.71848Z" />
		</g>
	</symbol>
	<symbol id="menu" viewBox="0 0 23 43">
		<g>
			<path d="M2 11.1895H3" stroke-width="3" stroke-linecap="round" stroke-linejoin="round" />
			<path d="M2 21.3618H3" stroke-width="3" stroke-linecap="round" stroke-linejoin="round" />
			<path d="M2 32.5513H3" stroke-width="3" stroke-linecap="round" stroke-linejoin="round" />
			<path d="M11 11.1895H12" stroke-width="3" stroke-linecap="round" stroke-linejoin="round" />
			<path d="M11 21.3618H12" stroke-width="3" stroke-linecap="round" stroke-linejoin="round" />
			<path d="M11 32.5513H12" stroke-width="3" stroke-linecap="round" stroke-linejoin="round" />
			<path d="M20 11.1895H21" stroke-width="3" stroke-linecap="round" stroke-linejoin="round" />
			<path d="M20 21.3618H21" stroke-width="3" stroke-linecap="round" stroke-linejoin="round" />
			<path d="M20 32.5513H21" stroke-width="3" stroke-linecap="round" stroke-linejoin="round" />
		</g>
	</symbol>
	<symbol id="details_black" viewBox="0 0 51 54">
		<g>
			<path d="M37.5303 27.5303C37.8232 27.2374 37.8232 26.7626 37.5303 26.4697L32.7574 21.6967C32.4645 21.4038 31.9896 21.4038 31.6967 21.6967C31.4038 21.9896 31.4038 22.4645 31.6967 22.7574L35.9393 27L31.6967 31.2426C31.4038 31.5355 31.4038 32.0104 31.6967 32.3033C31.9896 32.5962 32.4645 32.5962 32.7574 32.3033L37.5303 27.5303ZM10 27.75L37 27.75L37 26.25L10 26.25L10 27.75Z" fill="black" />
			<path d="M1 14.3533C11.5 -7.64648 50.5 -1.64747 50.5 26.3533C50.5 54.354 16.5 61.3524 1 42.3524" stroke="black" />
		</g>
	</symbol>
		<symbol viewBox="0 0 30 12" id="arrow_black">
		<g>
			<path d="M27.5303 6.53032C27.8232 6.23743 27.8232 5.76255 27.5303 5.46966L22.7574 0.69669C22.4645 0.403797 21.9896 0.403797 21.6967 0.69669C21.4038 0.989584 21.4038 1.46446 21.6967 1.75735L25.9393 5.99999L21.6967 10.2426C21.4038 10.5355 21.4038 11.0104 21.6967 11.3033C21.9896 11.5962 22.4645 11.5962 22.7574 11.3033L27.5303 6.53032ZM3.15014e-07 6.75L27 6.74999L27 5.24999L-3.15014e-07 5.25L3.15014e-07 6.75Z" fill="black" />
		</g>
	</symbol>
	<symbol viewBox="0 0 30 12" id="arrow_orange">
		<g>
			<path d="M27.5303 6.53032C27.8232 6.23743 27.8232 5.76255 27.5303 5.46966L22.7574 0.69669C22.4645 0.403797 21.9896 0.403797 21.6967 0.69669C21.4038 0.989584 21.4038 1.46446 21.6967 1.75735L25.9393 5.99999L21.6967 10.2426C21.4038 10.5355 21.4038 11.0104 21.6967 11.3033C21.9896 11.5962 22.4645 11.5962 22.7574 11.3033L27.5303 6.53032ZM3.15014e-07 6.75L27 6.74999L27 5.24999L-3.15014e-07 5.25L3.15014e-07 6.75Z" fill="#FFC729" />
		</g>
	</symbol>
	<symbol viewBox="0 0 379 287" id="triangle">
		<g>
			<path d="M378.412 255.921L228.868 134.177L84.3163 0.59616L0.51309 286.442L128.385 191.651L378.412 255.921Z" fill="#FFC729"/>
		</g>
	</symbol>
	<symbol viewBox="0 0 495 540" id="parallelepiped">
		<g>
			<path d="M0.5 40.5L189.5 0.5L494.5 300L60 540L0.5 40.5Z" fill="#FFC729"/>
		</g>
	</symbol>
	<symbol viewBox="0 0 664 586" id="figure">
		<g>
			<path d="M427.87 388.844L317.802 0L0 229.465L460.94 586L803 202.04L427.87 388.844Z" fill="#FFC729"/>
		</g>
	</symbol>
</svg>
