<svg width="19" height="16" viewBox="0 0 19 16" fill="none" xmlns="http://www.w3.org/2000/svg">
<path d="M18.1782 7.06956L15.3762 4.52344V1.58225C15.3762 1.05044 14.9019 0.619451 14.3158 0.619451C13.731 0.619451 13.2567 1.05044 13.2567 1.58225V2.59761L11.1704 0.701756C10.1389 -0.235031 8.34546 -0.23337 7.3163 0.703451L0.31019 7.06956C-0.103397 7.44612 -0.103397 8.05542 0.31019 8.4314C0.723963 8.80786 1.39581 8.80786 1.80943 8.4314L8.81487 2.06512C9.04309 1.85884 9.44533 1.85884 9.67235 2.06451L16.679 8.4314C16.8867 8.61965 17.1576 8.71328 17.4284 8.71328C17.6998 8.71328 17.9711 8.61955 18.1782 8.4314C18.592 8.05545 18.592 7.44615 18.1782 7.06956Z" fill="black"/>
<path d="M9.61211 3.89255C9.40857 3.70769 9.07899 3.70769 8.87604 3.89255L2.71349 9.49069C2.61619 9.57907 2.56104 9.69973 2.56104 9.82564V13.9087C2.56104 14.8668 3.41597 15.6437 4.47034 15.6437H7.52143V11.35H10.9661V15.6437H14.0172C15.0715 15.6437 15.9264 14.8668 15.9264 13.9088V9.82564C15.9264 9.69973 15.8718 9.57907 15.774 9.49069L9.61211 3.89255Z" fill="black"/>
</svg>
