<svg width="17" height="17" viewBox="0 0 17 17" fill="none" xmlns="http://www.w3.org/2000/svg">
	<path d="M15.8463 13.5074L12.0689 10.1738C11.979 10.0958 11.8689 10.0537 11.7571 10.0537C11.6009 10.0537 11.4522 10.1356 11.3593 10.2727C10.9294 10.9068 10.4023 11.4555 9.79255 11.9031C9.67908 11.9864 9.60391 12.1138 9.5864 12.2526C9.56882 12.3916 9.60784 12.5291 9.69641 12.6395L12.9033 16.5722C13.1206 16.8434 13.4361 17 13.7676 17C14.0656 17 14.3494 16.8755 14.5668 16.6493L15.9224 15.2393C16.1534 14.999 16.2726 14.6854 16.2583 14.3561C16.2438 14.0266 16.0975 13.7252 15.8463 13.5074Z" fill="black" />
	<path d="M6.00211 12.4866C7.6052 12.4866 9.11251 11.8371 10.2462 10.6579C11.38 9.4786 12.0043 7.91087 12.0043 6.2433C12.0043 2.80078 9.31175 0 6.00211 0C2.69245 0 0 2.80078 0 6.2433C0 9.68581 2.69254 12.4866 6.00211 12.4866ZM1.94508 6.2433C1.94508 3.91637 3.76504 2.0233 6.00211 2.0233C8.23921 2.0233 10.0591 3.91637 10.0591 6.2433C10.0591 7.36865 9.63672 8.42787 8.86954 9.22578C8.10232 10.0237 7.084 10.4632 6.00211 10.4632C3.76504 10.4633 1.94508 8.5702 1.94508 6.2433Z" fill="black" />
</svg>
