<svg width="18" height="15" viewBox="0 0 18 15" fill="none" xmlns="http://www.w3.org/2000/svg">
	<path d="M1.41778 2.55256C1.06926 3.04183 1.00896 3.6074 1.06466 3.99128C1.06466 6.07685 1.06466 10.4566 1.06466 11.2908C1.06465 11.986 1.62957 13.3764 3.88934 13.3764H14.4819C16.4592 13.6544 16.9535 12.1018 16.9535 11.2908C16.9535 9.66867 16.9535 5.93781 16.9535 3.99128C16.9535 3.37615 16.7654 2.90682 16.4785 2.55256M1.41778 2.55256C1.80562 2.00809 2.55037 1.55811 3.88934 1.55811C6.43154 1.55811 11.7749 1.55811 14.1288 1.55811C14.7728 1.55811 15.8573 1.78577 16.4785 2.55256M1.41778 2.55256L8.83255 8.85762L16.4785 2.55256" stroke="black" stroke-width="1.7" />
</svg>
