<svg width="17" height="15" viewBox="0 0 17 15" fill="none" xmlns="http://www.w3.org/2000/svg">
	<path d="M16.6961 12.9894C16.3498 13.9162 14.9754 14.6849 13.8791 14.9094C13.129 15.0607 12.1493 15.1815 8.85137 13.8856C4.63293 12.2292 1.91633 8.16639 1.7046 7.90279C1.50185 7.63919 0 5.7515 0 3.79919C0 1.84688 1.04609 0.896228 1.46775 0.488079C1.81406 0.153056 2.38644 0 2.93551 0C3.11314 0 3.27284 0.00850322 3.41638 0.0153057C3.83805 0.0323119 4.04978 0.056121 4.3279 0.687052C4.6742 1.47784 5.51753 3.43016 5.61801 3.63083C5.72029 3.8315 5.82257 4.1036 5.67902 4.3672C5.54445 4.6393 5.42602 4.76004 5.21429 4.99133C5.00256 5.22261 4.8016 5.39948 4.58987 5.64777C4.39608 5.86375 4.17717 6.09503 4.4212 6.49468C4.66523 6.88582 5.50856 8.1902 6.75023 9.23778C8.35256 10.5898 9.65164 11.0217 10.1164 11.2054C10.4627 11.3414 10.8754 11.3091 11.1284 11.054C11.4495 10.7258 11.8461 10.1816 12.2498 9.64593C12.5369 9.26159 12.8994 9.21397 13.2798 9.35002C13.6673 9.47757 15.7182 10.4384 16.1399 10.6374C16.5616 10.8381 16.8397 10.9333 16.942 11.1017C17.0424 11.27 17.0424 12.0608 16.6961 12.9894Z" fill="black" />
</svg>
