<svg viewBox="0 0 31 28" fill="none" xmlns="http://www.w3.org/2000/svg">
 <path d="M29.5532 24.3033C28.9501 26.0064 26.5564 27.4189 24.647 27.8314C23.3407 28.1096 21.6345 28.3314 15.8907 25.9502C8.54385 22.9064 3.8126 15.4408 3.44385 14.9564C3.09072 14.4721 0.475098 11.0033 0.475098 7.41582C0.475098 3.82832 2.29697 2.08145 3.03135 1.33145C3.63447 0.715821 4.63135 0.43457 5.5876 0.43457C5.89697 0.43457 6.1751 0.450196 6.4251 0.462696C7.15947 0.493945 7.52822 0.537696 8.0126 1.69707C8.61572 3.1502 10.0845 6.73769 10.2595 7.10644C10.4376 7.47519 10.6157 7.97519 10.3657 8.45957C10.1314 8.95957 9.9251 9.18144 9.55635 9.60644C9.1876 10.0314 8.8376 10.3564 8.46885 10.8127C8.13135 11.2096 7.7501 11.6346 8.1751 12.3689C8.6001 13.0877 10.0688 15.4846 12.2313 17.4096C15.022 19.8939 17.2845 20.6877 18.0939 21.0252C18.697 21.2752 19.4157 21.2158 19.8564 20.7471C20.4157 20.1439 21.1064 19.1439 21.8095 18.1596C22.3095 17.4533 22.9407 17.3658 23.6032 17.6158C24.2782 17.8502 27.8501 19.6158 28.5845 19.9814C29.3189 20.3502 29.8032 20.5252 29.9814 20.8346C30.1564 21.1439 30.1564 22.5971 29.5532 24.3033Z" fill="black"/>
</svg>
