<svg viewBox="0 0 28 30" fill="none" xmlns="http://www.w3.org/2000/svg">
	<path d="M27.2254 7.57085L27.2172 7.53784C26.5492 4.83735 23.5377 1.9397 20.7721 1.33686L20.7409 1.33042C16.2677 0.4771 11.732 0.4771 7.25976 1.33042L7.22763 1.33686C4.46299 1.9397 1.45137 4.83755 0.78252 7.53784L0.775097 7.57085C-0.0506835 11.342 -0.0506835 15.1666 0.775097 18.9378L0.78252 18.9708C1.42295 21.556 4.21016 24.3206 6.87256 25.0809V28.0954C6.87256 29.1865 8.20215 29.7223 8.9582 28.9349L12.0124 25.7602C12.6749 25.7972 13.3377 25.8179 14.0003 25.8179C16.2519 25.8179 18.5047 25.6049 20.7408 25.1784L20.772 25.1719C23.5376 24.5691 26.5491 21.6712 27.2171 18.9709L27.2253 18.9379C28.0511 15.1666 28.0511 11.3422 27.2254 7.57085ZM24.8083 18.3911C24.3623 20.1529 22.0758 22.3431 20.259 22.7478C17.8806 23.2001 15.4832 23.3934 13.0883 23.3271C13.0406 23.3257 12.9948 23.3443 12.9617 23.3785C12.6218 23.7273 10.7317 25.6677 10.7317 25.6677L8.35986 28.1021C8.18642 28.283 7.88174 28.1598 7.88174 27.9103V22.9165C7.88174 22.834 7.82285 22.764 7.74179 22.748C7.74131 22.7478 7.74092 22.7478 7.74043 22.7477C5.92363 22.343 3.63789 20.1528 3.19111 18.391C2.44785 14.9822 2.44785 11.5265 3.19111 8.11772C3.63789 6.35591 5.92363 4.16567 7.74043 3.76099C11.8943 2.97095 16.106 2.97095 20.2591 3.76099C22.0767 4.16567 24.3624 6.35591 24.8084 8.11772C25.5524 11.5266 25.5524 14.9823 24.8083 18.3911Z" fill="black" />
	<path d="M17.9522 20.6963C17.6729 20.6115 17.4067 20.5545 17.1594 20.4521C14.5978 19.3893 12.2403 18.0182 10.373 15.9165C9.31113 14.7214 8.47998 13.3721 7.77744 11.9442C7.44424 11.267 7.16348 10.5634 6.87724 9.86419C6.61631 9.22669 7.00068 8.5681 7.40537 8.08763C7.78515 7.63675 8.27393 7.29183 8.80322 7.03744C9.21631 6.839 9.62373 6.95345 9.92549 7.30355C10.5776 8.06058 11.1769 8.85628 11.6618 9.73382C11.9602 10.2736 11.8783 10.9333 11.3376 11.3006C11.2062 11.3899 11.0864 11.4948 10.9641 11.5955C10.8566 11.6839 10.7557 11.7732 10.682 11.8928C10.5476 12.1117 10.5411 12.37 10.6276 12.6079C11.2943 14.4401 12.4181 15.8649 14.2623 16.6324C14.5574 16.7551 14.8537 16.898 15.1938 16.8584C15.7631 16.7919 15.9475 16.1673 16.3465 15.841C16.7364 15.5222 17.2349 15.518 17.6549 15.7838C18.0751 16.0498 18.4823 16.3352 18.8872 16.6238C19.2847 16.907 19.6803 17.1838 20.0468 17.5068C20.3993 17.8172 20.5207 18.2244 20.3222 18.6456C19.9589 19.4172 19.4301 20.0589 18.6675 20.4687C18.4522 20.5841 18.1949 20.6215 17.9522 20.6963C18.1949 20.6215 17.6729 20.6115 17.9522 20.6963Z" fill="black" />
	<path d="M14.0071 6.15513C17.3576 6.24908 20.1097 8.47261 20.6994 11.7851C20.7999 12.3496 20.8357 12.9265 20.8804 13.4995C20.8992 13.7404 20.7627 13.9693 20.5028 13.9725C20.2342 13.9757 20.1134 13.7509 20.0958 13.5102C20.0613 13.0335 20.0374 12.5544 19.9717 12.0818C19.6249 9.5858 17.6347 7.52086 15.1503 7.07779C14.7764 7.01109 14.394 6.99361 14.0151 6.95386C13.7758 6.92877 13.4623 6.91431 13.4093 6.61666C13.3649 6.36714 13.5754 6.16851 13.813 6.15572C13.8774 6.15191 13.9423 6.15494 14.0071 6.15513C13.9423 6.15494 17.3578 6.24908 14.0071 6.15513Z" fill="black" />
	<path d="M19.099 12.756C19.0935 12.7979 19.0906 12.8962 19.066 12.9888C18.9772 13.3251 18.467 13.3672 18.3497 13.0279C18.3149 12.9272 18.3097 12.8125 18.3095 12.7041C18.3083 11.9946 18.1541 11.2856 17.7962 10.6681C17.4283 10.0334 16.8662 9.50012 16.2071 9.17717C15.8085 8.98206 15.3775 8.86067 14.9406 8.7885C14.7497 8.75686 14.5567 8.73782 14.3648 8.71106C14.1323 8.67874 14.0081 8.53059 14.0192 8.30149C14.0295 8.08684 14.1864 7.93225 14.4204 7.94563C15.1893 7.98919 15.932 8.15559 16.6157 8.51751C18.0058 9.25374 18.7999 10.4156 19.0317 11.9673C19.0422 12.0377 19.059 12.1073 19.0644 12.1778C19.0774 12.3518 19.0858 12.5261 19.099 12.756C19.0858 12.5261 19.0935 12.7977 19.099 12.756Z" fill="black" />
	<path d="M17.0148 12.6749C16.7345 12.68 16.5845 12.5247 16.5555 12.2679C16.5355 12.0888 16.5195 11.9071 16.4767 11.7327C16.3925 11.3892 16.21 11.0711 15.9211 10.8606C15.7848 10.7613 15.6302 10.689 15.4684 10.6421C15.2628 10.5826 15.0492 10.599 14.8442 10.5488C14.6214 10.4942 14.4982 10.3138 14.5332 10.1049C14.5651 9.91464 14.75 9.7662 14.958 9.78134C16.257 9.87509 17.1854 10.5467 17.3179 12.076C17.3274 12.1839 17.3383 12.2978 17.3144 12.4013C17.2732 12.5777 17.1423 12.6663 17.0148 12.6749C17.1423 12.6663 16.7344 12.6799 17.0148 12.6749Z" fill="black" />
</svg>